<?xml version="1.0" encoding="UTF-8"?>
<svg xmlns="http://www.w3.org/2000/svg" viewBox="0 0 1300 950" width="1300" height="950" style="background:#fff">
  <style>
    text { font-family: 'Courier New', monospace; fill: #1a1a1a; }
    .label { font-size: 12px; }
    .pin { font-size: 10px; fill: #444; }
    .pinbold { font-size: 11px; fill: #1a1a1a; font-weight: bold; }
    .title { font-size: 16px; font-weight: bold; }
    .subtitle { font-size: 11px; fill: #555; }
    .note { font-size: 9px; fill: #666; }
    .wire { stroke: #1a1a1a; stroke-width: 1.5; fill: none; }
    .wire-thick { stroke: #1a1a1a; stroke-width: 2; fill: none; }
    .wire-dash { stroke: #1a1a1a; stroke-width: 1; fill: none; stroke-dasharray: 6,3; }
    .comp { stroke: #1a1a1a; stroke-width: 1.5; fill: none; }
    .comp-fill { stroke: #1a1a1a; stroke-width: 1.5; fill: #fff; }
    .border { stroke: #1a1a1a; stroke-width: 2; fill: none; }
    .border-thin { stroke: #1a1a1a; stroke-width: 1; fill: none; }
    .junction { fill: #1a1a1a; }
  </style>

  <rect x="15" y="15" width="1270" height="920" class="border"/>

  <text x="650" y="48" class="title" text-anchor="middle">Schaltplan v3 — Arduino + BC337 + DS2E-S-DC24V</text>

  <!-- ============================================ -->
  <!-- POWER RAILS                                  -->
  <!-- ============================================ -->
  <line x1="35" y1="80" x2="580" y2="80" class="wire-thick"/>
  <text x="40" y="76" class="label">+5V</text>
  <line x1="35" y1="830" x2="580" y2="830" class="wire"/>
  <text x="40" y="828" class="label">GND</text>

  <line x1="620" y1="80" x2="1265" y2="80" class="wire-thick"/>
  <text x="625" y="76" class="label">+24V</text>
  <line x1="620" y1="830" x2="1265" y2="830" class="wire"/>
  <text x="625" y="828" class="label">GND-24V</text>

  <line x1="600" y1="65" x2="600" y2="845" class="wire-dash"/>
  <text x="600" y="860" class="note" text-anchor="middle">galv. Trennung</text>

  <!-- ============================================ -->
  <!-- ARDUINO NANO (left side)                     -->
  <!-- ============================================ -->
  <rect x="60" y="200" width="170" height="400" class="comp-fill" rx="3"/>
  <text x="145" y="228" class="title" text-anchor="middle">ARDUINO</text>
  <text x="145" y="248" class="title" text-anchor="middle">NANO</text>
  <text x="145" y="268" class="subtitle" text-anchor="middle">ATmega328P</text>

  <!-- Left pins of Arduino -->
  <line x1="60" y1="310" x2="35" y2="310" class="wire"/>
  <text x="68" y="314" class="pinbold">D4</text>
  <circle cx="35" cy="310" r="2.5" class="junction"/>

  <line x1="60" y1="360" x2="35" y2="360" class="wire"/>
  <text x="68" y="364" class="pinbold">D5</text>
  <circle cx="35" cy="360" r="2.5" class="junction"/>

  <line x1="60" y1="410" x2="35" y2="410" class="wire"/>
  <text x="68" y="414" class="pinbold">D6</text>
  <circle cx="35" cy="410" r="2.5" class="junction"/>

  <line x1="60" y1="460" x2="35" y2="460" class="wire"/>
  <text x="68" y="464" class="pinbold">D7</text>
  <circle cx="35" cy="460" r="2.5" class="junction"/>

  <!-- Right pins of Arduino -->
  <line x1="230" y1="310" x2="255" y2="310" class="wire"/>
  <text x="200" y="314" class="pinbold">D8</text>
  <circle cx="255" cy="310" r="2.5" class="junction"/>

  <line x1="230" y1="380" x2="255" y2="380" class="wire"/>
  <text x="205" y="384" class="pinbold">5V</text>
  <circle cx="255" cy="380" r="2.5" class="junction"/>

  <line x1="230" y1="430" x2="255" y2="430" class="wire"/>
  <text x="195" y="434" class="pinbold">GND</text>
  <circle cx="255" cy="430" r="2.5" class="junction"/>

  <!-- 5V to rail -->
  <line x1="255" y1="380" x2="280" y2="380" class="wire"/>
  <line x1="280" y1="380" x2="280" y2="80" class="wire"/>
  <circle cx="280" cy="80" r="2.5" class="junction"/>

  <!-- GND to rail -->
  <line x1="255" y1="430" x2="290" y2="430" class="wire"/>
  <line x1="290" y1="430" x2="290" y2="830" class="wire"/>
  <circle cx="290" cy="830" r="2.5" class="junction"/>

  <!-- USB -->
  <rect x="115" y="575" width="60" height="20" class="comp-fill"/>
  <text x="145" y="589" class="pin" text-anchor="middle">USB</text>
  <text x="145" y="612" class="note" text-anchor="middle">zum PC</text>

  <!-- ============================================ -->
  <!-- DS18B20 (above Arduino, left)                -->
  <!-- ============================================ -->
  <rect x="340" y="160" width="130" height="80" class="comp-fill" rx="3"/>
  <text x="405" y="185" class="label" text-anchor="middle">DS18B20</text>
  <text x="405" y="200" class="subtitle" text-anchor="middle">Temp.Sensor</text>
  <text x="405" y="215" class="pin" text-anchor="middle">R/G/S Kabel</text>

  <!-- VCC to 5V -->
  <line x1="370" y1="160" x2="370" y2="80" class="wire"/>
  <circle cx="370" cy="80" r="2.5" class="junction"/>
  <text x="377" y="150" class="pin">VCC (Rot)</text>

  <!-- GND to rail -->
  <line x1="430" y1="240" x2="430" y2="830" class="wire"/>
  <circle cx="430" cy="830" r="2.5" class="junction"/>
  <text x="437" y="258" class="pin">GND (Schwarz)</text>

  <!-- DATA to D4 -->
  <line x1="340" y1="210" x2="310" y2="210" class="wire"/>
  <line x1="310" y1="210" x2="310" y2="310" class="wire"/>
  <line x1="310" y1="310" x2="255" y2="310" class="wire"/>
  <text x="315" y="208" class="pin">DQ (Gelb)</text>

  <!-- R1 Pull-Up -->
  <line x1="310" y1="210" x2="310" y2="130" class="wire"/>
  <circle cx="310" cy="210" r="2.5" class="junction"/>
  <rect x="304" y="130" width="12" height="35" class="comp-fill"/>
  <text x="295" y="152" class="pin" text-anchor="end">R1</text>
  <text x="295" y="164" class="pin" text-anchor="end">4.7k</text>
  <line x1="310" y1="130" x2="310" y2="80" class="wire"/>
  <circle cx="310" cy="80" r="2.5" class="junction"/>

  <!-- ============================================ -->
  <!-- LEDs (left side, from D5, D6, D7)            -->
  <!-- ============================================ -->

  <!-- LED1 BLAU D5 -->
  <line x1="35" y1="360" x2="35" y2="640" class="wire"/>
  <line x1="35" y1="640" x2="340" y2="640" class="wire"/>
  <rect x="340" y="634" width="40" height="12" class="comp-fill"/>
  <text x="360" y="630" class="pin" text-anchor="middle">R2 220R</text>
  <line x1="380" y1="640" x2="410" y2="640" class="wire"/>
  <polygon points="410,630 410,650 430,640" class="comp"/>
  <line x1="430" y1="630" x2="430" y2="650" class="wire"/>
  <line x1="422" y1="628" x2="416" y2="622" class="wire"/>
  <polygon points="416,622 418,625 420,623" style="fill:#1a1a1a;stroke:none"/>
  <text x="440" y="637" class="pin">LED1 BLAU</text>
  <line x1="430" y1="640" x2="460" y2="640" class="wire"/>
  <line x1="460" y1="640" x2="460" y2="830" class="wire"/>
  <circle cx="460" cy="830" r="2.5" class="junction"/>

  <!-- LED2 GRUN D6 -->
  <line x1="35" y1="410" x2="35" y2="690" class="wire"/>
  <line x1="35" y1="690" x2="340" y2="690" class="wire"/>
  <rect x="340" y="684" width="40" height="12" class="comp-fill"/>
  <text x="360" y="680" class="pin" text-anchor="middle">R3 220R</text>
  <line x1="380" y1="690" x2="410" y2="690" class="wire"/>
  <polygon points="410,680 410,700 430,690" class="comp"/>
  <line x1="430" y1="680" x2="430" y2="700" class="wire"/>
  <line x1="422" y1="678" x2="416" y2="672" class="wire"/>
  <polygon points="416,672 418,675 420,673" style="fill:#1a1a1a;stroke:none"/>
  <text x="440" y="687" class="pin">LED2 GRUN</text>
  <line x1="430" y1="690" x2="470" y2="690" class="wire"/>
  <line x1="470" y1="690" x2="470" y2="830" class="wire"/>
  <circle cx="470" cy="830" r="2.5" class="junction"/>

  <!-- LED3 ROT D7 -->
  <line x1="35" y1="460" x2="35" y2="740" class="wire"/>
  <line x1="35" y1="740" x2="340" y2="740" class="wire"/>
  <rect x="340" y="734" width="40" height="12" class="comp-fill"/>
  <text x="360" y="730" class="pin" text-anchor="middle">R4 220R</text>
  <line x1="380" y1="740" x2="410" y2="740" class="wire"/>
  <polygon points="410,730 410,750 430,740" class="comp"/>
  <line x1="430" y1="730" x2="430" y2="750" class="wire"/>
  <line x1="422" y1="728" x2="416" y2="722" class="wire"/>
  <polygon points="416,722 418,725 420,723" style="fill:#1a1a1a;stroke:none"/>
  <text x="440" y="737" class="pin">LED3 ROT</text>
  <line x1="430" y1="740" x2="480" y2="740" class="wire"/>
  <line x1="480" y1="740" x2="480" y2="830" class="wire"/>
  <circle cx="480" cy="830" r="2.5" class="junction"/>

  <!-- ============================================ -->
  <!-- D8 to R5 to BC337                            -->
  <!-- ============================================ -->
  <line x1="255" y1="310" x2="630" y2="310" class="wire"/>
  <circle cx="310" cy="310" r="2.5" class="junction"/>

  <!-- R5 -->
  <rect x="630" y="304" width="50" height="12" class="comp-fill"/>
  <text x="655" y="300" class="pin" text-anchor="middle">R5 1k</text>
  <text x="655" y="288" class="pin" text-anchor="middle">(Basis)</text>
  <line x1="680" y1="310" x2="710" y2="310" class="wire"/>

  <!-- ============================================ -->
  <!-- BC337 NPN                                    -->
  <!-- ============================================ -->
  <rect x="710" y="260" width="100" height="130" class="comp-fill" rx="3"/>
  <text x="760" y="285" class="label" text-anchor="middle">BC337</text>
  <text x="760" y="300" class="subtitle" text-anchor="middle">NPN</text>

  <!-- NPN symbol -->
  <line x1="738" y1="320" x2="738" y2="360" class="wire"/>
  <line x1="738" y1="330" x2="768" y2="315" class="wire"/>
  <line x1="738" y1="350" x2="768" y2="368" class="wire"/>
  <polygon points="768,368 761,365 763,361" style="fill:#1a1a1a;stroke:none"/>

  <!-- Pin labels -->
  <text x="700" y="314" class="pin" text-anchor="end">B</text>
  <text x="775" y="255" class="pin">C</text>
  <text x="775" y="400" class="pin">E</text>

  <!-- Collector up -->
  <line x1="760" y1="260" x2="760" y2="230" class="wire"/>

  <!-- Emitter down to GND-24V -->
  <line x1="760" y1="390" x2="760" y2="830" class="wire"/>
  <circle cx="760" cy="830" r="2.5" class="junction"/>

  <!-- BC337 pinout note -->
  <text x="715" y="410" class="note">Pinout (flache Seite</text>
  <text x="715" y="422" class="note">zu dir): E - B - C</text>

  <!-- ============================================ -->
  <!-- DS2E-S-DC24V RELAY                           -->
  <!-- Physical view from top, actual pin numbers   -->
  <!-- Pin 1 marker top-left                        -->
  <!-- ============================================ -->

  <!-- Relay body -->
  <rect x="860" y="180" width="340" height="260" class="comp-fill" rx="5" style="stroke-width:2.5"/>

  <!-- Pin 1 marker -->
  <circle cx="888" cy="210" r="6" class="junction"/>

  <!-- Notch -->
  <path d="M1000,180 Q1030,200 1060,180" class="comp" style="stroke-width:1.5"/>

  <!-- Labels on body -->
  <text x="1030" y="280" class="title" text-anchor="middle">DS2E-S-DC24V</text>
  <text x="1030" y="300" class="subtitle" text-anchor="middle">Panasonic</text>
  <text x="1030" y="318" class="subtitle" text-anchor="middle">DPDT / 24V Spule</text>
  <text x="1030" y="336" class="note" text-anchor="middle">2.88k Spule / 8.3mA</text>

  <!-- ============================================ -->
  <!-- BOTTOM PINS: 1, 2, 4, 6, 16                  -->
  <!-- (Pin 1 marker side)                          -->
  <!-- ============================================ -->

  <!-- Pin 1 -->
  <line x1="890" y1="440" x2="890" y2="490" class="wire"/>
  <circle cx="890" cy="490" r="4" class="comp-fill"/>
  <text x="890" y="512" class="pinbold" text-anchor="middle">1</text>
  <text x="890" y="528" class="pin" text-anchor="middle">Spule +</text>
  <text x="890" y="540" class="pin" text-anchor="middle">(A1)</text>

  <!-- Pin 16 -->
  <line x1="940" y1="440" x2="940" y2="490" class="wire"/>
  <circle cx="940" cy="490" r="4" class="comp-fill"/>
  <text x="940" y="512" class="pinbold" text-anchor="middle">16</text>
  <text x="940" y="528" class="pin" text-anchor="middle">Spule -</text>
  <text x="940" y="540" class="pin" text-anchor="middle">(A2)</text>

  <!-- Pin 2 -->
  <line x1="1020" y1="440" x2="1020" y2="490" class="wire"/>
  <circle cx="1020" cy="490" r="4" class="comp-fill"/>
  <text x="1020" y="512" class="pinbold" text-anchor="middle">2</text>
  <text x="1020" y="528" class="pin" text-anchor="middle">COM1</text>

  <!-- Pin 4 -->
  <line x1="1090" y1="440" x2="1090" y2="490" class="wire"/>
  <circle cx="1090" cy="490" r="4" class="comp-fill"/>
  <text x="1090" y="512" class="pinbold" text-anchor="middle">4</text>
  <text x="1090" y="528" class="pin" text-anchor="middle">NC1</text>

  <!-- Pin 6 -->
  <line x1="1160" y1="440" x2="1160" y2="490" class="wire"/>
  <circle cx="1160" cy="490" r="4" class="comp-fill"/>
  <text x="1160" y="512" class="pinbold" text-anchor="middle">6</text>
  <text x="1160" y="528" class="pin" text-anchor="middle">NO1</text>

  <!-- ============================================ -->
  <!-- TOP PINS: 9, 11, 13, 15                      -->
  <!-- (opposite side)                              -->
  <!-- ============================================ -->

  <!-- Pin 9 -->
  <line x1="1020" y1="180" x2="1020" y2="140" class="wire"/>
  <circle cx="1020" cy="140" r="4" class="comp-fill"/>
  <text x="1020" y="130" class="pinbold" text-anchor="middle">9</text>
  <text x="1020" y="118" class="pin" text-anchor="middle">COM2</text>

  <!-- Pin 11 -->
  <line x1="1090" y1="180" x2="1090" y2="140" class="wire"/>
  <circle cx="1090" cy="140" r="4" class="comp-fill"/>
  <text x="1090" y="130" class="pinbold" text-anchor="middle">11</text>
  <text x="1090" y="118" class="pin" text-anchor="middle">NC2</text>

  <!-- Pin 13 -->
  <line x1="1160" y1="180" x2="1160" y2="140" class="wire"/>
  <circle cx="1160" cy="140" r="4" class="comp-fill"/>
  <text x="1160" y="130" class="pinbold" text-anchor="middle">13</text>
  <text x="1160" y="118" class="pin" text-anchor="middle">NO2</text>

  <!-- Pin 15 (if present, near spule side) -->
  <line x1="940" y1="180" x2="940" y2="140" class="wire"/>
  <circle cx="940" cy="140" r="4" class="comp-fill"/>
  <text x="940" y="130" class="pinbold" text-anchor="middle">15</text>
  <text x="940" y="118" class="pin" text-anchor="middle">(n.c.)</text>

  <!-- ============================================ -->
  <!-- WIRING: Pin 1 (Spule+) to +24V               -->
  <!-- ============================================ -->
  <line x1="890" y1="490" x2="890" y2="560" class="wire"/>
  <line x1="890" y1="560" x2="660" y2="560" class="wire"/>
  <line x1="660" y1="560" x2="660" y2="80" class="wire"/>
  <circle cx="660" cy="80" r="2.5" class="junction"/>
  <text x="770" y="555" class="pin">Pin 1 -> +24V</text>

  <!-- ============================================ -->
  <!-- WIRING: Pin 16 (Spule-) to BC337 Collector    -->
  <!-- ============================================ -->
  <line x1="940" y1="490" x2="940" y2="580" class="wire"/>
  <line x1="940" y1="580" x2="760" y2="580" class="wire"/>
  <line x1="760" y1="580" x2="760" y2="390" class="wire"/>
  <!-- connect into emitter line, but actually goes to collector -->
  <!-- Fix: collector is at top, line goes up from BC337 -->
  <!-- Already drawn: collector up to y=230 -->
  <!-- So Pin 16 needs to connect to collector wire -->
  <!-- Route: Pin16 -> left -> up to collector junction -->
  <text x="845" y="578" class="pin">Pin 16 -> BC337 Collector</text>

  <!-- Actually connect Pin 16 to collector properly -->
  <!-- Collector wire goes from BC337 top (760,260) up to (760,230) -->
  <!-- Route Pin 16 wire to meet at (760,230) -->
  <line x1="940" y1="580" x2="830" y2="580" class="wire"/>
  <line x1="830" y1="580" x2="830" y2="230" class="wire"/>
  <line x1="830" y1="230" x2="760" y2="230" class="wire"/>

  <!-- ============================================ -->
  <!-- FREILAUFDIODE D1: between Pin 1 and Pin 16   -->
  <!-- ============================================ -->
  <line x1="870" y1="560" x2="870" y2="580" class="wire"/>
  <circle cx="870" cy="560" r="2" class="junction"/>
  <circle cx="870" cy="580" r="2" class="junction"/>
  <!-- Vertical diode between the two horizontal wires -->
  <line x1="870" y1="560" x2="870" y2="545" class="wire"/>
  <line x1="870" y1="580" x2="870" y2="595" class="wire"/>
  <!-- extend: draw diode on a separate vertical segment -->
  <!-- Diode between y=560 (Pin1/+24V line) and y=580 (Pin16/collector line) -->
  <!-- Too close, let's offset -->
  <!-- Use a parallel path at x=850 -->
  <line x1="850" y1="560" x2="850" y2="580" class="wire"/>
  <circle cx="850" cy="560" r="2" class="junction"/>
  <circle cx="850" cy="580" r="2" class="junction"/>
  <!-- Diode symbol: triangle pointing up = cathode at top (+24V side) -->
  <polygon points="844,575 856,575 850,565" class="comp"/>
  <line x1="844" y1="565" x2="856" y2="565" class="wire"/>
  <text x="820" y="575" class="pin" text-anchor="end">D1</text>
  <text x="820" y="587" class="pin" text-anchor="end">1N4004</text>

  <!-- ============================================ -->
  <!-- WIRING: Pin 2 (COM1) to +24V (for switching) -->
  <!-- ============================================ -->
  <line x1="1020" y1="490" x2="1020" y2="610" class="wire"/>
  <line x1="1020" y1="610" x2="680" y2="610" class="wire"/>
  <line x1="680" y1="610" x2="680" y2="80" class="wire"/>
  <circle cx="680" cy="80" r="2.5" class="junction"/>
  <text x="840" y="608" class="pin">Pin 2 (COM1) -> +24V</text>

  <!-- ============================================ -->
  <!-- WIRING: Pin 6 (NO1) to Load                  -->
  <!-- ============================================ -->
  <line x1="1160" y1="490" x2="1160" y2="640" class="wire"/>
  <line x1="1160" y1="640" x2="1200" y2="640" class="wire"/>
  <text x="1165" y="620" class="pin">Pin 6 (NO1)</text>
  <text x="1165" y="632" class="pin">zur Last</text>

  <!-- Load (Motor/Luefter) -->
  <circle cx="1200" cy="700" r="35" class="comp-fill"/>
  <text x="1200" y="695" class="label" text-anchor="middle">M</text>
  <text x="1200" y="710" class="pin" text-anchor="middle">1~</text>
  <line x1="1200" y1="640" x2="1200" y2="665" class="wire"/>
  <text x="1200" y="755" class="label" text-anchor="middle">LUEFTER</text>
  <text x="1200" y="770" class="subtitle" text-anchor="middle">24V DC</text>

  <!-- Luefter GND -->
  <line x1="1200" y1="735" x2="1200" y2="830" class="wire"/>
  <circle cx="1200" cy="830" r="2.5" class="junction"/>

  <!-- Pin 4 (NC1): not connected -->
  <text x="1090" y="545" class="note" text-anchor="middle">Pin 4 (NC1)</text>
  <text x="1090" y="557" class="note" text-anchor="middle">n.c.</text>

  <!-- Pins 9,11,13,15 (Umschalter 2): not connected -->
  <text x="1060" y="100" class="note" text-anchor="middle">Pins 9, 11, 13, 15 (Umschalter 2): nicht verbunden</text>

  <!-- ============================================ -->
  <!-- NETZTEIL                                     -->
  <!-- ============================================ -->
  <rect x="640" y="660" width="120" height="70" class="comp-fill" rx="3"/>
  <text x="700" y="682" class="label" text-anchor="middle">NETZTEIL</text>
  <text x="700" y="698" class="subtitle" text-anchor="middle">24V DC</text>
  <text x="700" y="714" class="subtitle" text-anchor="middle">230V~ in</text>

  <line x1="670" y1="660" x2="670" y2="80" class="wire"/>
  <circle cx="670" cy="80" r="2.5" class="junction"/>
  <text x="650" y="658" class="pin" text-anchor="end">V+</text>

  <line x1="730" y1="730" x2="730" y2="830" class="wire"/>
  <circle cx="730" cy="830" r="2.5" class="junction"/>
  <text x="738" y="748" class="pin">V-</text>

  <!-- ============================================ -->
  <!-- VERDRAHTUNGS-BOX                             -->
  <!-- ============================================ -->
  <rect x="860" y="650" width="220" height="165" class="border-thin"/>
  <text x="875" y="670" class="label">VERDRAHTUNG RELAIS:</text>
  <line x1="860" y1="678" x2="1080" y2="678" class="border-thin"/>
  <text x="875" y="695" class="pin">Pin 1  (Spule+)  -> +24V</text>
  <text x="875" y="712" class="pin">Pin 16 (Spule-)  -> BC337 C</text>
  <text x="875" y="729" class="pin">Pin 2  (COM1)    -> +24V</text>
  <text x="875" y="746" class="pin">Pin 6  (NO1)     -> Last +</text>
  <text x="875" y="763" class="pin">Pin 4  (NC1)     -> frei</text>
  <text x="875" y="780" class="pin">D1 parallel Pin 1 - Pin 16</text>
  <text x="875" y="797" class="pin">Pins 9,11,13,15  -> frei</text>

  <!-- ============================================ -->
  <!-- TITLE BLOCK                                  -->
  <!-- ============================================ -->
  <rect x="860" y="870" width="420" height="60" class="border"/>
  <line x1="1050" y1="870" x2="1050" y2="930" class="border-thin"/>
  <text x="875" y="892" class="note">Erstellt: 2026</text>
  <text x="875" y="908" class="note">Blatt 1/1 | Version 3</text>
  <text x="875" y="924" class="note">MELECS Temp-Controller</text>
  <text x="1065" y="892" class="title">Stromlaufplan</text>
  <text x="1065" y="910" class="label">Arduino Nano + BC337</text>
  <text x="1065" y="924" class="label">DS2E-S-DC24V (Pin 1,2,4,6,9,11,13,15,16)</text>

</svg>
