<?xml version="1.0" encoding="UTF-8"?>
<svg xmlns="http://www.w3.org/2000/svg" viewBox="0 0 1300 1050" width="1300" height="1050" style="background:#fff">
  <style>
    text { font-family: 'Courier New', monospace; fill: #1a1a1a; }
    .label { font-size: 12px; }
    .pin { font-size: 10px; fill: #444; }
    .pinbold { font-size: 12px; fill: #1a1a1a; font-weight: bold; }
    .title { font-size: 16px; font-weight: bold; }
    .subtitle { font-size: 11px; fill: #555; }
    .note { font-size: 9px; fill: #666; }
    .wire { stroke: #1a1a1a; stroke-width: 1.5; fill: none; }
    .wire-thick { stroke: #1a1a1a; stroke-width: 2; fill: none; }
    .wire-dash { stroke: #1a1a1a; stroke-width: 1; fill: none; stroke-dasharray: 6,3; }
    .comp { stroke: #1a1a1a; stroke-width: 1.5; fill: none; }
    .comp-fill { stroke: #1a1a1a; stroke-width: 1.5; fill: #fff; }
    .border { stroke: #1a1a1a; stroke-width: 2; fill: none; }
    .border-thin { stroke: #1a1a1a; stroke-width: 1; fill: none; }
    .junction { fill: #1a1a1a; }
  </style>

  <rect x="15" y="15" width="1270" height="1020" class="border"/>
  <text x="650" y="48" class="title" text-anchor="middle">Platinen-Schaltplan (Ansicht wie auf deiner Lochrasterplatine)</text>

  <!-- ============================================ -->
  <!-- PCB OUTLINE                                  -->
  <!-- ============================================ -->
  <rect x="50" y="70" width="1200" height="810" class="comp-fill" rx="6" style="stroke-width:2.5"/>

  <!-- ============================================ -->
  <!-- RAILS                                        -->
  <!-- ============================================ -->
  <line x1="70" y1="110" x2="1230" y2="110" class="wire-thick"/>
  <text x="75" y="106" class="label">+5V</text>

  <line x1="70" y1="840" x2="1230" y2="840" class="wire"/>
  <text x="75" y="838" class="label">GND</text>

  <line x1="70" y1="140" x2="400" y2="140" class="wire-thick"/>
  <text x="75" y="136" class="label">+24V</text>

  <line x1="70" y1="810" x2="400" y2="810" class="wire"/>
  <text x="75" y="808" class="label">GND-24V</text>

  <line x1="415" y1="130" x2="415" y2="820" class="wire-dash"/>
  <text x="415" y="855" class="note" text-anchor="middle">galv. Trennung</text>

  <!-- ============================================ -->
  <!-- LEFT: RELAIS DS2E-S-DC24V                    -->
  <!-- Physical view from BOTTOM (pin side)         -->
  <!-- Bottom row R->L: 1, 2, 4, 6, 8              -->
  <!-- Top row L->R: 9, 11, 13, 15, 16             -->
  <!-- ============================================ -->

  <rect x="90" y="220" width="280" height="180" class="comp-fill" rx="5" style="stroke-width:2.5"/>
  <text x="230" y="290" class="title" text-anchor="middle">DS2E-S-DC24V</text>
  <text x="230" y="310" class="subtitle" text-anchor="middle">Panasonic</text>
  <text x="230" y="328" class="note" text-anchor="middle">Ansicht von unten (Pin-Seite)</text>

  <!-- Pin 1 marker -->
  <circle cx="340" cy="380" r="5" class="junction"/>
  <text x="348" y="384" class="note">Pin 1</text>
  <text x="348" y="394" class="note">Markierung</text>

  <!-- BOTTOM ROW pins (going right to left: 1, 2, 4, 6, 8) -->
  <line x1="330" y1="400" x2="330" y2="440" class="wire"/>
  <circle cx="330" cy="440" r="4" class="comp-fill"/>
  <text x="330" y="462" class="pinbold" text-anchor="middle">1</text>
  <text x="330" y="478" class="pin" text-anchor="middle">Spule+</text>

  <line x1="280" y1="400" x2="280" y2="440" class="wire"/>
  <circle cx="280" cy="440" r="4" class="comp-fill"/>
  <text x="280" y="462" class="pinbold" text-anchor="middle">2</text>
  <text x="280" y="478" class="pin" text-anchor="middle">COM1</text>

  <line x1="230" y1="400" x2="230" y2="440" class="wire"/>
  <circle cx="230" cy="440" r="4" class="comp-fill"/>
  <text x="230" y="462" class="pinbold" text-anchor="middle">4</text>
  <text x="230" y="478" class="pin" text-anchor="middle">NC1</text>

  <line x1="180" y1="400" x2="180" y2="440" class="wire"/>
  <circle cx="180" cy="440" r="4" class="comp-fill"/>
  <text x="180" y="462" class="pinbold" text-anchor="middle">6</text>
  <text x="180" y="478" class="pin" text-anchor="middle">NO1</text>

  <line x1="130" y1="400" x2="130" y2="440" class="wire"/>
  <circle cx="130" cy="440" r="4" class="comp-fill"/>
  <text x="130" y="462" class="pinbold" text-anchor="middle">8</text>
  <text x="130" y="478" class="pin" text-anchor="middle">(n.c.)</text>

  <!-- TOP ROW pins (going left to right: 9, 11, 13, 15, 16) -->
  <line x1="130" y1="220" x2="130" y2="190" class="wire"/>
  <circle cx="130" cy="190" r="4" class="comp-fill"/>
  <text x="130" y="180" class="pinbold" text-anchor="middle">9</text>
  <text x="130" y="168" class="pin" text-anchor="middle">COM2</text>

  <line x1="180" y1="220" x2="180" y2="190" class="wire"/>
  <circle cx="180" cy="190" r="4" class="comp-fill"/>
  <text x="180" y="180" class="pinbold" text-anchor="middle">11</text>
  <text x="180" y="168" class="pin" text-anchor="middle">NC2</text>

  <line x1="230" y1="220" x2="230" y2="190" class="wire"/>
  <circle cx="230" cy="190" r="4" class="comp-fill"/>
  <text x="230" y="180" class="pinbold" text-anchor="middle">13</text>
  <text x="230" y="168" class="pin" text-anchor="middle">NO2</text>

  <line x1="280" y1="220" x2="280" y2="190" class="wire"/>
  <circle cx="280" cy="190" r="4" class="comp-fill"/>
  <text x="280" y="180" class="pinbold" text-anchor="middle">15</text>
  <text x="280" y="168" class="pin" text-anchor="middle">(n.c.)</text>

  <line x1="330" y1="220" x2="330" y2="190" class="wire"/>
  <circle cx="330" cy="190" r="4" class="comp-fill"/>
  <text x="330" y="180" class="pinbold" text-anchor="middle">16</text>
  <text x="330" y="168" class="pin" text-anchor="middle">Spule-</text>

  <!-- ============================================ -->
  <!-- WIRING: Pin 1 (Spule+) to +24V              -->
  <!-- ============================================ -->
  <line x1="330" y1="440" x2="330" y2="500" class="wire"/>
  <line x1="330" y1="500" x2="370" y2="500" class="wire"/>
  <line x1="370" y1="500" x2="370" y2="140" class="wire"/>
  <circle cx="370" cy="140" r="2.5" class="junction"/>
  <text x="375" y="498" class="pin">Pin 1 -> +24V</text>

  <!-- ============================================ -->
  <!-- WIRING: Pin 16 (Spule-) to BC337 Collector   -->
  <!-- ============================================ -->
  <line x1="330" y1="190" x2="330" y2="155" class="wire"/>
  <line x1="330" y1="155" x2="355" y2="155" class="wire"/>
  <line x1="355" y1="155" x2="355" y2="540" class="wire"/>
  <!-- continues to BC337 below -->

  <!-- ============================================ -->
  <!-- FREILAUFDIODE D1 between Pin 1 and Pin 16    -->
  <!-- Runs parallel, between the two wires         -->
  <!-- ============================================ -->
  <line x1="345" y1="500" x2="345" y2="155" class="wire"/>
  <circle cx="345" cy="500" r="2" class="junction"/>
  <circle cx="345" cy="155" r="2" class="junction"/>
  <!-- Freilaufdiode D1 -->
  <!-- Kathode (Strich) unten = Richtung Pin 1 / +24V (y=500) -->
  <!-- Anode (Dreieck) oben = Richtung Pin 16 / Collector (y=155) -->
  <!-- Sperrt im Normalbetrieb, leitet Induktionsstrom ab -->
  <polygon points="339,340 351,340 345,360" class="comp"/>
  <line x1="339" y1="360" x2="351" y2="360" class="wire"/>
  <text x="310" y="345" class="pin" text-anchor="end">D1</text>
  <text x="310" y="358" class="pin" text-anchor="end">1N4004</text>
  <text x="310" y="375" class="note" text-anchor="end">Kathode (Strich)</text>
  <text x="310" y="387" class="note" text-anchor="end">unten = Richtung +24V</text>

  <!-- ============================================ -->
  <!-- WIRING: Pin 2 (COM1) to +24V                 -->
  <!-- ============================================ -->
  <line x1="280" y1="440" x2="280" y2="520" class="wire"/>
  <line x1="280" y1="520" x2="380" y2="520" class="wire"/>
  <line x1="380" y1="520" x2="380" y2="140" class="wire"/>
  <circle cx="380" cy="140" r="2.5" class="junction"/>
  <text x="290" y="518" class="pin">Pin 2 (COM1) -> +24V</text>

  <!-- ============================================ -->
  <!-- WIRING: Pin 6 (NO1) to screw terminal        -->
  <!-- ============================================ -->
  <line x1="180" y1="440" x2="180" y2="540" class="wire"/>
  <line x1="180" y1="540" x2="100" y2="540" class="wire"/>
  <text x="105" y="535" class="pin">Pin 6 (NO1) -> Last</text>

  <!-- Screw terminal for load output -->
  <rect x="75" y="550" width="70" height="40" class="comp-fill" rx="3"/>
  <text x="110" y="568" class="label" text-anchor="middle">KLEMME</text>
  <text x="110" y="582" class="pin" text-anchor="middle">Last</text>

  <!-- ============================================ -->
  <!-- LEFT BELOW RELAY: 24V Screw Terminal          -->
  <!-- ============================================ -->
  <rect x="75" y="620" width="70" height="50" class="comp-fill" rx="3"/>
  <text x="110" y="640" class="label" text-anchor="middle">KLEMME</text>
  <text x="110" y="656" class="pin" text-anchor="middle">24V</text>

  <line x1="95" y1="620" x2="95" y2="140" class="wire"/>
  <circle cx="95" cy="140" r="2.5" class="junction"/>
  <text x="88" y="618" class="pin" text-anchor="end">V+</text>

  <line x1="125" y1="670" x2="125" y2="810" class="wire"/>
  <circle cx="125" cy="810" r="2.5" class="junction"/>
  <text x="132" y="690" class="pin">V-</text>

  <!-- ============================================ -->
  <!-- LEFT BELOW: BC337                             -->
  <!-- ============================================ -->
  <rect x="200" y="600" width="110" height="130" class="comp-fill" rx="3"/>
  <text x="255" y="628" class="label" text-anchor="middle">BC337</text>
  <text x="255" y="645" class="subtitle" text-anchor="middle">NPN</text>

  <!-- NPN symbol -->
  <line x1="232" y1="665" x2="232" y2="700" class="wire"/>
  <line x1="232" y1="673" x2="260" y2="658" class="wire"/>
  <line x1="232" y1="692" x2="260" y2="710" class="wire"/>
  <polygon points="260,710 253,707 255,703" style="fill:#1a1a1a;stroke:none"/>

  <text x="192" y="685" class="pin" text-anchor="end">B</text>
  <text x="268" y="595" class="pin">C</text>
  <text x="268" y="740" class="pin">E</text>

  <!-- Collector up to Pin 16 wire -->
  <line x1="255" y1="600" x2="255" y2="570" class="wire"/>
  <line x1="255" y1="570" x2="355" y2="570" class="wire"/>
  <line x1="355" y1="570" x2="355" y2="540" class="wire"/>
  <text x="290" y="565" class="pin">-> Pin 16 (Spule-)</text>

  <!-- Emitter to GND-24V -->
  <line x1="255" y1="730" x2="255" y2="810" class="wire"/>
  <circle cx="255" cy="810" r="2.5" class="junction"/>

  <!-- Basis from R5 -->
  <line x1="200" y1="680" x2="170" y2="680" class="wire"/>

  <!-- R5 -->
  <rect x="120" y="674" width="50" height="12" class="comp-fill"/>
  <text x="145" y="670" class="pin" text-anchor="middle">R5 1k</text>
  <line x1="120" y1="680" x2="100" y2="680" class="wire"/>

  <!-- R5 connects right, under galv. separation, to Arduino D8 -->
  <!-- Route: go down, under relay, then right to Arduino -->
  <line x1="100" y1="680" x2="100" y2="760" class="wire"/>
  <line x1="100" y1="760" x2="430" y2="760" class="wire"/>
  <line x1="430" y1="760" x2="430" y2="530" class="wire"/>
  <!-- meets Arduino D8 line -->

  <!-- BC337 pinout note -->
  <text x="205" y="748" class="note">Pinout (flache Seite zu dir):</text>
  <text x="205" y="760" class="note">E - B - C (links-mitte-rechts)</text>

  <!-- Not connected pins label -->
  <text x="130" y="500" class="note">Pin 4(NC1), 8: n.c.</text>
  <text x="130" y="155" class="note">Pin 9,11,13,15: n.c.</text>

  <!-- ============================================ -->
  <!-- CENTER: ARDUINO NANO                         -->
  <!-- ============================================ -->
  <rect x="530" y="340" width="250" height="380" class="comp-fill" rx="4"/>
  <text x="655" y="370" class="title" text-anchor="middle">ARDUINO NANO</text>
  <text x="655" y="390" class="subtitle" text-anchor="middle">ATmega328P</text>

  <!-- Left pins -->
  <line x1="530" y1="430" x2="500" y2="430" class="wire"/>
  <text x="538" y="434" class="pinbold">D4</text>

  <line x1="530" y1="480" x2="500" y2="480" class="wire"/>
  <text x="538" y="484" class="pinbold">D5</text>

  <line x1="530" y1="530" x2="500" y2="530" class="wire"/>
  <text x="538" y="534" class="pinbold">D6</text>

  <line x1="530" y1="580" x2="500" y2="580" class="wire"/>
  <text x="538" y="584" class="pinbold">D7</text>

  <!-- Right pins -->
  <line x1="780" y1="430" x2="810" y2="430" class="wire"/>
  <text x="748" y="434" class="pinbold">D8</text>

  <line x1="780" y1="500" x2="810" y2="500" class="wire"/>
  <text x="753" y="504" class="pinbold">5V</text>

  <line x1="780" y1="560" x2="810" y2="560" class="wire"/>
  <text x="745" y="564" class="pinbold">GND</text>

  <!-- 5V to rail -->
  <line x1="810" y1="500" x2="850" y2="500" class="wire"/>
  <line x1="850" y1="500" x2="850" y2="110" class="wire"/>
  <circle cx="850" cy="110" r="2.5" class="junction"/>

  <!-- GND to rail -->
  <line x1="810" y1="560" x2="860" y2="560" class="wire"/>
  <line x1="860" y1="560" x2="860" y2="840" class="wire"/>
  <circle cx="860" cy="840" r="2.5" class="junction"/>

  <!-- D8 to BC337 R5 -->
  <line x1="810" y1="430" x2="830" y2="430" class="wire"/>
  <line x1="830" y1="430" x2="830" y2="530" class="wire"/>
  <line x1="830" y1="530" x2="430" y2="530" class="wire"/>
  <!-- meets the wire from R5 at (430,530) going down to (430,760) -->
  <circle cx="430" cy="530" r="2.5" class="junction"/>
  <text x="630" y="525" class="pin">D8 -> R5 -> BC337 Basis</text>

  <!-- USB -->
  <rect x="625" y="695" width="60" height="20" class="comp-fill"/>
  <text x="655" y="709" class="pin" text-anchor="middle">USB</text>
  <text x="655" y="735" class="note" text-anchor="middle">zum PC (Serial)</text>

  <!-- ============================================ -->
  <!-- TOP: LEDs + Sensor Klemme                    -->
  <!-- ============================================ -->

  <!-- Sensor screw terminal -->
  <rect x="440" y="170" width="90" height="55" class="comp-fill" rx="3"/>
  <text x="485" y="190" class="label" text-anchor="middle">KLEMME</text>
  <text x="485" y="206" class="pin" text-anchor="middle">Sensor</text>
  <text x="485" y="218" class="pin" text-anchor="middle">R/G/S</text>

  <!-- VCC to 5V -->
  <line x1="455" y1="170" x2="455" y2="110" class="wire"/>
  <circle cx="455" cy="110" r="2.5" class="junction"/>
  <text x="440" y="165" class="pin" text-anchor="end">Rot</text>

  <!-- GND -->
  <line x1="515" y1="225" x2="515" y2="840" class="wire"/>
  <circle cx="515" cy="840" r="2.5" class="junction"/>
  <text x="520" y="250" class="pin">Schwarz</text>

  <!-- DATA to D4 -->
  <line x1="485" y1="225" x2="485" y2="300" class="wire"/>
  <line x1="485" y1="300" x2="480" y2="300" class="wire"/>
  <line x1="480" y1="300" x2="480" y2="430" class="wire"/>
  <line x1="480" y1="430" x2="500" y2="430" class="wire"/>
  <text x="490" y="262" class="pin">Gelb (DQ)</text>

  <!-- R1 Pull-Up -->
  <line x1="485" y1="270" x2="530" y2="270" class="wire"/>
  <circle cx="485" cy="270" r="2.5" class="junction"/>
  <line x1="530" y1="270" x2="530" y2="170" class="wire"/>
  <rect x="524" y="170" width="12" height="40" class="comp-fill"/>
  <text x="542" y="195" class="pin">R1 4.7k</text>
  <line x1="530" y1="170" x2="530" y2="110" class="wire"/>
  <circle cx="530" cy="110" r="2.5" class="junction"/>

  <!-- LED1 BLAU from D5 -->
  <line x1="500" y1="480" x2="475" y2="480" class="wire"/>
  <line x1="475" y1="480" x2="475" y2="150" class="wire"/>
  <line x1="475" y1="150" x2="640" y2="150" class="wire"/>
  <rect x="640" y="144" width="40" height="12" class="comp-fill"/>
  <text x="660" y="140" class="pin" text-anchor="middle">R2 220R</text>
  <line x1="680" y1="150" x2="710" y2="150" class="wire"/>
  <polygon points="710,140 710,160 730,150" class="comp"/>
  <line x1="730" y1="140" x2="730" y2="160" class="wire"/>
  <line x1="722" y1="138" x2="716" y2="132" class="wire"/>
  <polygon points="716,132 718,135 720,133" style="fill:#1a1a1a;stroke:none"/>
  <text x="740" y="147" class="pin">LED1 BLAU</text>
  <line x1="730" y1="150" x2="790" y2="150" class="wire"/>
  <line x1="790" y1="150" x2="790" y2="840" class="wire"/>
  <circle cx="790" cy="840" r="2.5" class="junction"/>

  <!-- LED2 GRUN from D6 -->
  <line x1="500" y1="530" x2="465" y2="530" class="wire"/>
  <line x1="465" y1="530" x2="465" y2="195" class="wire"/>
  <line x1="465" y1="195" x2="640" y2="195" class="wire"/>
  <rect x="640" y="189" width="40" height="12" class="comp-fill"/>
  <text x="660" y="185" class="pin" text-anchor="middle">R3 220R</text>
  <line x1="680" y1="195" x2="710" y2="195" class="wire"/>
  <polygon points="710,185 710,205 730,195" class="comp"/>
  <line x1="730" y1="185" x2="730" y2="205" class="wire"/>
  <line x1="722" y1="183" x2="716" y2="177" class="wire"/>
  <polygon points="716,177 718,180 720,178" style="fill:#1a1a1a;stroke:none"/>
  <text x="740" y="192" class="pin">LED2 GRUN</text>
  <line x1="730" y1="195" x2="800" y2="195" class="wire"/>
  <line x1="800" y1="195" x2="800" y2="840" class="wire"/>
  <circle cx="800" cy="840" r="2.5" class="junction"/>

  <!-- LED3 ROT from D7 -->
  <line x1="500" y1="580" x2="455" y2="580" class="wire"/>
  <line x1="455" y1="580" x2="455" y2="240" class="wire"/>
  <line x1="455" y1="240" x2="640" y2="240" class="wire"/>
  <rect x="640" y="234" width="40" height="12" class="comp-fill"/>
  <text x="660" y="230" class="pin" text-anchor="middle">R4 220R</text>
  <line x1="680" y1="240" x2="710" y2="240" class="wire"/>
  <polygon points="710,230 710,250 730,240" class="comp"/>
  <line x1="730" y1="230" x2="730" y2="250" class="wire"/>
  <line x1="722" y1="228" x2="716" y2="222" class="wire"/>
  <polygon points="716,222 718,225 720,223" style="fill:#1a1a1a;stroke:none"/>
  <text x="740" y="237" class="pin">LED3 ROT</text>
  <line x1="730" y1="240" x2="810" y2="240" class="wire"/>
  <line x1="810" y1="240" x2="810" y2="840" class="wire"/>
  <circle cx="810" cy="840" r="2.5" class="junction"/>

  <!-- Right screw terminal for load output -->
  <rect x="900" y="170" width="80" height="50" class="comp-fill" rx="3"/>
  <text x="940" y="190" class="label" text-anchor="middle">KLEMME</text>
  <text x="940" y="206" class="pin" text-anchor="middle">Last-Ausg.</text>

  <!-- ============================================ -->
  <!-- VERDRAHTUNGSBOX                              -->
  <!-- ============================================ -->
  <rect x="900" y="340" width="320" height="210" class="border-thin"/>
  <text x="915" y="360" class="label">VERDRAHTUNG RELAIS DS2E:</text>
  <line x1="900" y1="370" x2="1220" y2="370" class="border-thin"/>
  <text x="915" y="390" class="pin">Pin 1  (Spule+)  -> +24V</text>
  <text x="915" y="410" class="pin">Pin 16 (Spule-)  -> BC337 Collector</text>
  <text x="915" y="430" class="pin">Pin 2  (COM1)    -> +24V</text>
  <text x="915" y="450" class="pin">Pin 6  (NO1)     -> Last + (Klemme)</text>
  <text x="915" y="470" class="pin">D1 (1N4004) parallel Pin 1 u. Pin 16</text>
  <text x="915" y="490" class="pin">  Kathode (Strich) an Pin 1 (+24V)</text>
  <text x="915" y="515" class="pin">Pin 4(NC1), 8: nicht verbunden</text>
  <text x="915" y="535" class="pin">Pin 9,11,13,15: nicht verbunden</text>

  <!-- ============================================ -->
  <!-- PIN ZUORDNUNG                                -->
  <!-- ============================================ -->
  <rect x="900" y="570" width="320" height="120" class="border-thin"/>
  <text x="915" y="590" class="label">ARDUINO PIN-ZUORDNUNG:</text>
  <line x1="900" y1="598" x2="1220" y2="598" class="border-thin"/>
  <text x="915" y="618" class="pin">D4  = DS18B20 DATA (+ R1 4.7k Pull-Up)</text>
  <text x="915" y="638" class="pin">D5  = LED Blau  |  D6 = LED Gruen</text>
  <text x="915" y="658" class="pin">D7  = LED Rot</text>
  <text x="915" y="678" class="pin">D8  = BC337 Basis (via R5 1k)</text>

  <!-- ============================================ -->
  <!-- STUECKLISTE                                  -->
  <!-- ============================================ -->
  <rect x="900" y="710" width="320" height="140" class="border-thin"/>
  <text x="915" y="730" class="label">STUECKLISTE:</text>
  <line x1="900" y1="738" x2="1220" y2="738" class="border-thin"/>
  <text x="915" y="755" class="note">R1=4.7k  R2,R3,R4=220R  R5=1k</text>
  <text x="915" y="770" class="note">D1=1N4004 (Freilaufdiode)</text>
  <text x="915" y="785" class="note">BC337 NPN (E-B-C, flache Seite zu dir)</text>
  <text x="915" y="800" class="note">DS2E-S-DC24V Panasonic Relais</text>
  <text x="915" y="815" class="note">DS18B20 Temp.Sensor (Kabel: R/G/S)</text>
  <text x="915" y="830" class="note">LED: Blau(&lt;20C) Gruen(20-25C) Rot(&gt;25C)</text>
  <text x="915" y="845" class="note">Schraubklemmen: 24V, Sensor, Last</text>

  <!-- ============================================ -->
  <!-- TITLE BLOCK                                  -->
  <!-- ============================================ -->
  <rect x="50" y="900" width="1200" height="50" class="border"/>
  <line x1="350" y1="900" x2="350" y2="950" class="border-thin"/>
  <line x1="700" y1="900" x2="700" y2="950" class="border-thin"/>
  <text x="65" y="920" class="note">Erstellt: 2026 | Blatt 1/1</text>
  <text x="65" y="938" class="note">MELECS Temp-Controller v3</text>
  <text x="365" y="920" class="title">Stromlaufplan (Platinen-Layout)</text>
  <text x="365" y="938" class="label">Arduino Nano + BC337 + DS2E-S-DC24V</text>
  <text x="715" y="920" class="label">Relais Pins: 1,2,4,6,8 | 9,11,13,15,16</text>
  <text x="715" y="938" class="note">Untere Reihe R->L: 1,2,4,6,8 | Obere Reihe L->R: 9,11,13,15,16</text>

</svg>
